<svg width="27" height="27" viewBox="0 0 27 27" fill="none" xmlns="http://www.w3.org/2000/svg">
<path d="M26.5 13.5C26.5 20.6797 20.6797 26.5 13.5 26.5C6.3203 26.5 0.5 20.6797 0.5 13.5C0.5 6.3203 6.3203 0.5 13.5 0.5C20.6797 0.5 26.5 6.3203 26.5 13.5Z" stroke="white"/>
<path d="M13.5321 12.2176C13.6698 12.0674 13.7825 11.9047 13.9327 11.767C14.3707 11.354 14.8839 11.1412 15.4972 11.1537C15.8351 11.1537 16.1605 11.1788 16.4734 11.2789C17.2119 11.4917 17.6374 11.9923 17.8377 12.7182C17.9879 13.2564 18.0129 13.8071 18.0254 14.3578C18.0254 15.5218 18.0254 16.6858 18.0254 17.8624C18.0254 17.975 18.0004 18 17.8878 18C17.287 18 16.6862 18 16.0854 18C15.9853 18 15.9603 17.9625 15.9603 17.8624C15.9603 16.7484 15.9603 15.647 15.9603 14.5331C15.9603 14.2577 15.9478 13.9824 15.8601 13.707C15.7225 13.2064 15.3595 12.956 14.8338 12.9811C14.1204 13.0186 13.7449 13.3691 13.6573 14.095C13.6323 14.2702 13.6198 14.4455 13.6198 14.6207C13.6198 15.6971 13.6198 16.786 13.6198 17.8624C13.6198 17.975 13.5947 18 13.4821 18C12.8813 18 12.268 18 11.6672 18C11.5671 18 11.5421 17.975 11.5421 17.8749C11.5421 15.7346 11.5421 13.5944 11.5421 11.4541C11.5421 11.354 11.5796 11.3289 11.6798 11.3289C12.2555 11.3289 12.8312 11.3289 13.407 11.3289C13.5071 11.3289 13.5447 11.3665 13.5321 11.4666C13.5321 11.7044 13.5321 11.9548 13.5321 12.2176Z" fill="white"/>
<path d="M10.2404 14.6583C10.2404 15.7222 10.2404 16.7736 10.2404 17.8374C10.2404 17.9501 10.2154 17.9876 10.0902 17.9876C9.48943 17.9751 8.88865 17.9876 8.28788 17.9876C8.18775 17.9876 8.16272 17.9626 8.16272 17.8625C8.16272 15.7222 8.16272 13.5819 8.16272 11.4417C8.16272 11.3541 8.18776 11.3165 8.27537 11.3165C8.88866 11.3165 9.48943 11.3165 10.1027 11.3165C10.2154 11.3165 10.2404 11.3666 10.2404 11.4667C10.2404 12.5306 10.2404 13.5945 10.2404 14.6583Z" fill="white"/>
<path d="M10.4031 9.18903C10.4031 9.85238 9.8649 10.3906 9.20154 10.3906C8.55071 10.3906 8 9.85239 8 9.20155C8 8.53819 8.53819 8 9.20154 8C9.8649 8 10.4031 8.53819 10.4031 9.18903Z" fill="white"/>
</svg>
